/* XPM */
static char *logo_os2[] = {
/* width height num_colors chars_per_pixel */
"    21   123        3            1",
/* colors */
". c #808080",
"# c #4040ff",
"a c #c0c0c0",
/* pixels */
".....................",
".....................",
"......##.............",
".....####...###......",
"....######..###......",
"....#######.###......",
"....###..######......",
"....###...#####......",
"....####...####......",
".....###....###......",
"......##.....##......",
".....................",
".....................",
"....##...............",
"....####.............",
"......####...........",
"........###..........",
".........####........",
"...........####......",
".............##......",
".....................",
".....................",
"....###...###........",
"....###..#####.......",
"....###.###.###......",
"....###.###.###......",
"....###.###.###......",
"....###.###.###......",
"....###.###.###......",
".....#####..###......",
"......###...###......",
".....................",
".....................",
".....................",
".......#####.........",
".....#########.......",
"....###########......",
"....###.....###......",
"....##.......##......",
"....##.......##......",
"....##.......##......",
"....###.....###......",
"....###########......",
".....#########.......",
".......#####.........",
".....................",
".....................",
".....................",
".....................",
".....................",
".....................",
".....................",
".....................",
".....................",
".....................",
".....................",
".....................",
".....................",
".....aaaaaaaaaa......",
"....aaaaaaaaaaa......",
"....aaaaaaaaaaa......",
"....aa...............",
"....aa...............",
"....aaa..............",
".....aaaaaaaaaa......",
"....aaaaaaaaaaa......",
"....aaaaaaaaaaa......",
"....aa...............",
"....aa...............",
"....aaa..............",
"....aaaaaaaaaaa......",
"....aaaaaaaaaaa......",
"....aaaaaaaaaaa......",
".....................",
".....................",
".....................",
"....aa...............",
"....aaaaaa...........",
"....aaaaaaaaa........",
"......aaaaaaaaa......",
"..........aaaaa......",
"......aaaaaaaaa......",
"....aaaaaaaaa........",
"....aaaaa............",
"....aaaaaaaaa........",
"......aaaaaaaaa......",
"..........aaaaa......",
"......aaaaaaaaa......",
"....aaaaaaaaa........",
"....aaaaaa...........",
"....aa...............",
"....a................",
"....aaaa.............",
"....aaaaaa...........",
".....aaaaaaaa........",
"........aaaaaaa......",
"..........aaaaa......",
"..........aaaaa......",
".......aaaaaaaa......",
".....aaaaaaaa........",
"....aaaaaa...........",
"....aaaa.............",
"....a................",
".....................",
".....................",
"....aaaaaaaaaaaaaa...",
"....aaaaaaaaaaaaaa...",
"....aaaaaaaaaaaaaa...",
"....aaa.....aaa......",
"....aa.......aa......",
"....aa.......aa......",
"....aaa.....aaa......",
"....aaaaaaaaaaa......",
".....aaaaaaaaa.......",
".......aaaaa.........",
".....................",
".....................",
".....................",
".....................",
".....................",
".....................",
".....................",
"....................."
};
