/* XPM */
static char *logo_clouds[] = {
"21 300 29 1",
" 	c #FCFCFEFEFCFC",
".	c #FCFCF6F6F4F4",
"X	c #F4F4F6F6F8F8",
"o	c #F4F4FEFEF4F4",
"O	c #ECECF6F6F4F4",
"+	c #FCFCFEFEF4F4",
"@	c #E4E4E6E6ECEC",
"#	c #E4E4EEEEF4F4",
"$	c #DCDCEEEEF4F4",
"%	c #DCDCE6E6F4F4",
"&	c #040406060808",
"*	c #D4D4E6E6ECEC",
"=	c #D4D4E6E6F4F4",
"-	c #CCCCDEDEECEC",
";	c #CCCCE6E6F4F4",
":	c #C4C4D6D6E4E4",
">	c #BCBCD6D6ECEC",
",	c #BCBCD6D6E4E4",
"<	c #B4B4D6D6E4E4",
"1	c #ACACCECEE4E4",
"2	c #A4A4C6C6E4E4",
"3	c #9C9CC6C6E4E4",
"4	c #9C9CBEBEE0E0",
"5	c #BCBCDEDEECEC",
"6	c #9494BEBEDCDC",
"7	c #8C8CBEBEDCDC",
"8	c #8484B6B6DCDC",
"9	c #9494C6C6DCDC",
"0	c #7C7CB6B6DCDC",
" .XXX XoXXXXOXXXOXXOO",
" XXXoXXXXXOXXXOXXXOOO",
" XXXXXoXOXXOXXOXOOOOO",
" XXX XXXXXOXXOXOXXOOO",
"+XXXXX OOXXXOXXOXOOOO",
"XXX XXXXXXOXXOXOXOOOO",
"XXXXX XOXOXOXOXOXOOOO",
"XXXX XXOXXXXXOXXOOOOO",
"XX XXoXXXOXXOXOXOOOOO",
"XXX XOOXOXOOXXOXXOOOO",
"X XXXXXOXXXOXXOOOOOOO",
"XXX XOXXXXOXXOXOOOOOO",
"X XXOXXOXOXOXOXOOOOOO",
" XXXXXOXXXXXOXOOOOOOO",
"XX OXXXOXOXOXOXOOOO@O",
" XXXXOXXXOXOXOOOOOOOO",
"XX OXXOXOXXXOOOOOOO#O",
" XXXOXXOXXOOXXOOOO@O#",
"XXOXXOXOXOXXOOOOOOOOO",
" XXOXXXXXXOOXOOOOO#O#",
"XXOXXOXOXOXXOOOOOOO#O",
" XXXOXXXOXOOOOOOOOOO@",
"XXOXXOXOXOXOOOOOOO#O#",
"XXXOXXXXOXOOOOOOOOO@O",
"XXOXXOXOXOXOOOO@OOO#O",
"XXXXOXXXOXOOOOOOOOOO@",
"XXOXXOXOXOOOOOOOOO@#O",
"XXXOXXXXOOOOOO@OO#OO@",
"XXOXXOOOXOOOOOOOOO@OO",
"XXXXOXXXOOOOOO#OOOO@@",
"XXOXXOOOXOOOOOO#O@OOO",
"XXXOXOXOOOOOOOOOOOO@O",
"XXOXXOXXOOOOOOOO#@OO@",
"XXXXOXOOOOOOOO#@OO@##",
"XXOXXOXOOOOOOOOOO@O##",
"XXXOXOXOOOO@O#O@O@O#@",
"XXOXXOXOOOOOOO#O@##O#",
"XXXXOXOOOOO#O#O@O#@#@",
"XXOXXOXOOOOO#O@O@#O##",
"XXOXOXOOOO@OOO@#OO@@#",
"XXOXOXOOOOO#OOO@O####",
"XOXOXOOOOO#OO@@O#@@#@",
"XXXXOXOOOOOOOOO@#O#@#",
"XOXOXOOOOO#OO@OO#@##@",
"XXXOXOOOO#O#O@O#@##@#",
"XOXXOOOOOOOOO@O##@#@@",
"XXOOXOOOOO#O@O#O$##@#",
"XOXOXOOOO#O#OO@#@#@#@",
"XXXXOOOO#OOO@@O#$##@$",
"XOOOXOOOOO#@OO#@##@#$",
"XXXXOOOO#OOOO@#O@#@@$",
"XOOOOOOOOO#O@O###@#$#",
"XXXXOOOO#OO@O#@$@@#@$",
"XOOOOOOOOOOO@O####@$$",
"XXXOOOOO#OO@O#@@#@#@@",
"XOOOOOOOO#O@O#O@#@#$$",
"XXXOOOO@OOO#O@O##@@#$",
"XOOOOOOOO#@O@###@#@$#",
"XOXOOOOO#O#@O#@##@#@$",
"XOXOOOOOOO@O@#O#@#@$$",
"XOOOOOOO#OO@OO@##@#@#",
"XOXOOO@OOOO@O##@#@#$$",
"XOOOOOO#OO@O@##O#@#@#",
"XOOOOO#OO#O@O#@@#@#$#",
"XOOOOOOOOO@O@#O#@#@#$",
"XOOOOO#OOOO@O#@##@#$@",
"XOOOOOO#O@OO@O##@#@#@",
"XOOOOOOO@#O@O#@##@#$@",
"XOOOOOOOOO@O@O##@#@#@",
"OOOOO#O#OOO@O#@##@#$@",
"OOOO#OOO#@@O####@#@#@",
"OOOOOOOO@OO@O#@##@#$@",
"OOOO#OO#O@OO@###@#@#@",
"OOOOOOOO@O@###@##@#$@",
"OOO#OOO@O@O#O##@#@#@#",
"OOOOO#O@OO##@#@##@@$@",
"OOOO#OO@O@O#####@@O@$",
"OOOOO#OOO@O#@#@#@#$#$",
"OOO#OO@O@O#####@#@@@#",
"OO#OO#O@#O#@##@#@#@$$",
"OOOOOO@O#@O##@#@#$#@$",
"OO#OO@O@####@##@#@@$$",
"OOO#O@O@O#@##@#@#$#@$",
"OO#OO@O@O#O#@#@O@#@$%",
"OOOO#@#O##@###@@$@#$$",
"OO#O@O@@O#O@#@#@#@@$@",
"OOO#O@OO#@####@#$@#$$",
"OO#O@O@####@#@#@#@#$%",
"OOO@O@#O#@O#@#@#$@@#$",
"OO#O@O@##O@###@@@#@$#",
"OOO@O@O##@O@#@#@#$#@$",
"OO#O@O@OO###@##@#@#@#",
"OO#O@OO#@#####@#@@$#@",
"OO#OOO@O#O@$#@##@O@@@",
"OO#O@OO@O#O#@##@#@#$#",
"OO#OOO@O@##@$#@##@@#@",
"OO#O@O@@O##O@###@##@@",
"OOO@O@OO##@O#$@###@#@",
"OO#O#O@O@O###@O@#@##@",
"OOO@O@O@O@#####O@####",
"OO#O#O@O@O#@O#@#$#@#@",
"OOOO@O#@O@OO##O######",
"OO#OO@O#O@OO@O#@O#@#@",
"OOO#OOO@O@O@O@#O##O##",
"OO#OO@O#O@OO@O#@O#@##",
"OOO#O#OO@#O@O@OO@#O##",
"OOOO#O@#OOOO@O@OOO@O#",
"OOO#OOO@O@#@OOO@@O@#@",
"OOOOOOOOOOOOO#O@O@O@O",
"OOOOOOO@O@O@O@O#O@@O@",
"OOOOO#OO@#OO@#OO#OO@O",
"OOOOOO&&&O@#OO@@O@#O@",
"OOOOO#&&&&&OO&OO@OO#O",
"OOOOOO&&&&&O@O&O#O@OO",
"OOOOO#&OOO&&OOO&O@O@O",
"OOOOOOO&&@O&O@O&@O#OO",
"OOOOOOOO&&&&&&&&#O@O@",
"OOOOOOOO#&&&&&&&@OOOO",
"OOOOOOOO@O@&&&&OO#O@O",
"OOOOO#O#OO#@OO@O@O@OO",
"OOOOOOOO@#OO@&OOO@O#@",
"OOOOO#&&&&&#OO&O@O#OO",
"OOOOOO&&&&&&&&&&OOO@@",
"OOOOOOO&&&&&&&&&@O@OO",
"OOO#OOOO&@&&&&&&OOO@@",
"OOOOO#O#&&O@O@&@O@OOO",
"OOO#OO&&&&&&@@OO@#@O@",
"OOOOO@&&&&&&&&@O@O#@O",
"OOOO#O#&&&&&&&&&O@O##",
"OOOOO#O@&O@&&&&&###O#",
"OOOOO@&#&&O@OO&&##@##",
"OOOO@O&&&&&&#@#@O#O##",
"OOOOOO&&&&&&&&#O#@##@",
"OOO@OOO&&&&&&&&&#####",
"OOOOOOO&@O@&&&&&#@O#@",
"OO#O#@OOO@OO@#&&#####",
"OO#O@O&&&O@O##@##@O#@",
"OO@O#O&&&&&@O&O######",
"OO#O@O&&&&&O@O&@#O#@#",
"OO@OOO&@O@&&O##&#@##O",
"OO#O@OO&&O@&@O@&O#O#@",
"OO@O#O@@&&&&&&&&@####",
"O#O@O@O@O&&&&&&&OO@O@",
"OO@O@O#O@OO&&&&OO@O@O",
"O#O#O#O@OOO@O@O@@O@OO",
"OO@O@O@O@@@O@&@OO@O@@",
"OO#OOO&&&&OO@O&O@O@OO",
"OO@O@O&&&&&&&O&&OO#O@",
"OOOO@O&&&&&&&&&&@O@O#",
"OOO@O@O&OO&&&&&&O@O@O",
"OO&&OO#O&@OO@&&&#OOO@",
"OO&&&&&O@&@OOO@O@O@OO",
"OO&&&&&&&&&&@O#@O@O@#",
"OOO&&&&&&&&&&&OO#OOOO",
"OOO&O#O&&&&&&&&&OOOOO",
"OOOOOOOOOO@&&&&&OOOOO",
"OOOOOO&OOOO#OO&&OOOOO",
"OOO&&&&OOOOOO&OOOOXOX",
"OOOO&&&&&&OOOO&OOOXXO",
"XOOOO&&&&&&&&&O&XXOOX",
"XOOOOO&&&&&&&&&&OOXXX",
"XOXOOO&OOO&&&&&&XXXOX",
"XOXOXOXOXOXOXO&&OXOXX",
"XOXOXOXOOOXXOXOOXXXOX",
"XOXOXOXXXXOOXOXXXOXXO",
"XOXXOXOOOOXXOXXOXXOXX",
"XXOOXOXXXXOOXXOXXOXOX",
"XXXXOX&&OOXXOXXXOXXXX",
"XXOXXOX&&XXOXXOXXOXOX",
"XXXOXX&OXOX&&&&OXXXXO",
"XXOXXO&XOX&&&&&&OXOXX",
"XXXXOX&&&&&&&&&&XOXOX",
"XXOXXX&&&&&&XOX&XXXXX",
"XXXOXOX&&&XXOX&&XXXXo",
"XXOXXXOXXXOXX&&X XoXX",
"XX&&&&XOXOXXO&&&XXXXX",
"XO&&&&&&&XXXXo&XoXXXX",
" X &&&&&&&&&&X&&XXXXX",
"XXX& X&&&&&&&&&&XXXXX",
" X XXX & X&&&&&&XXXXX",
"XXXO X&XXXoXX&&&XXXXX",
" X XXX&& XXXXX&XXXXXX",
"XXXoXXX&&&&XXX&XXXXX ",
"XXXXXXXX&&&&&&&&XX XX",
"XXXXXXXXX&&&&&&&X X X",
"XXXXXXXXXXX&&&&XXXXXX",
"XXXXXXXXXXXXXXX XoXXO",
"XXXXXX&XXXXXX&XXXXOXX",
"XXXXXX&&&& XXX& XXXOX",
"XXXXXX&&&&&&&&&&XXOXX",
" X XX &&&&&&&&&&XXXXO",
" X X X XX.&&&&&&XXOXX",
" XX XX X. .&.o&& XXOX",
" X X X&X .X.&&XXXXXXX",
" XX XX&&&&&X.X&X XXOX",
" X X X&&&&&&&&&XXXXXO",
" XX XXX&&&&&&&&&XX XX",
" X X X & X &&&&&X XXO",
" XX XXX X X .X&XXXXXX",
" X XXXX&&&&oXXXXXoXXO",
" XXXXX&&&&&&&XXX XXXX",
" XXXXX&&&&&&&&XXXXXOX",
" XXXXX&XXXXX&&&X XXXO",
"XXXXXX&&XXXXXX&&XXOXX",
"XXXXXXX&&&&XXXX&XXXOX",
"XXXXXXXX&&&&&&&&XOXXO",
"XXXXXXXXX&&&&&&&XXOXX",
"XXXXXXoXoX&&&&&OXOXOX",
"XX&&X XXXXX XXXXOXXXO",
"XX&&&&&oXXOXX&OXXXOXX",
"XX&&&&&&&&&oXO&OXOXOX",
"XXX&X&&&&&&&&&&&XXXXO",
"X X&OXOX&&&&&&&&XOXOX",
" XXXX XXXOX&&&&&OXXXO",
"XX X XXXOXOXXX&&XXOXO",
" XXOXXO&&XXOXOXOXOXXO",
"XX X O&&&&OXO&XXOXOXO",
" XXOXO&O&&XXXX&XXXOXO",
"XX XOX&XOXXOXOX&XOXOX",
" XXOXX&&XXOXOXX&XOXXO",
"XXOXXOX&&&XXXX&&OOXOX",
" XXXOXXX&&&&&&&&XXXOX",
"XOOXXOXOX&&&&&&&OXOXO",
" XXOXXXXXOX&&&&OXXOXO",
"XXXXXOXXOXXXXOXXOXOXO",
" X OXXOXXXOXOXOXOXOXO",
"XXXX OXXOXXOXXXOXXOOO",
" X XXXXXXOXXXOXXXOXOO",
"XXXX XoXXXXXOXOOXOXOO",
"XX&XXXXoXXOXXOXXOXOOO",
"XXX&&&XXXXXOXXXXXOOOO",
"XXXXXX&&&XXXOXOOXOOOO",
"XXXXXXXXX&&&XOXXOOOOO",
"XXXXXX XXXXO&&&XOOOO#",
"XoXXX XXXOXXOXO&OOO@O",
" XXoXXXXOXXXXOOOOO@O@",
"XXXOXXOXXXOOXOOOO@O#O",
"XXXXXXXOXOXOOOOO@O#OO",
"XXOXXOXXOXXOOOO@OO@O@",
"XXXOXXXXXOOOO#OO@@O#O",
"XXXXXOOOOOOO@O@&OO@O@",
"XOOOXOX&&&&&&&&&O@O@O",
"XOXOOO&&&&&&&&&&@O@O@",
"OOOOOO&&&&&&&&&&#O##O",
"OOOOOO&O@O@O#O#&#@O#@",
"OO#O@O&@#O###@###O##@",
"OO@OOO@&##@####&O@#@O",
"O#O#O@O&&&&&&&&&##O@@",
"OO@O@#&&&&&&&&&&#@#OO",
"O@O###&&&&&&&&&&###O@",
"OO@O##&#@$$%$@#&##O@O",
"OOO@O#&#$%%$%%@#@#@OO",
"O@#@O#@&%%$%$%#&@#OO@",
"OOOO@#&&&&&&&&&&#$@#O",
"OO@O##&&&&&&&&&&@@O##",
"OO@#O@&&&&&&&&&&@##@#",
"OOO#@#&$@$%%%$%&##@O$",
"O#@###&$%%%%$%%#%@###",
"##O##@&&%%%%%%$%#$@@#",
"##@@#$&%&&&&%%$%$@##@",
"#@#@$%@%%*%%&&&$%%$%$",
"#@$$%%&%*&&&&&&&#%%$%",
"#$%%%%&&&&&&&&%$%%%%%",
"#%%%%*&&&&&&%%%%$%*=*",
"$%$%*%&&&%*%**%*%=**-",
"#%%%%%&%%&&&=*;*;---;",
"$%$%%%%%%*%;&&&------",
"%%%%$%&%%&&&&&&&-:-:-",
"@$%%%%&&&&&&&&&->,,>,",
"%%@$%#&&&&&&--:-,,<1<",
"$$%%$%&&&*;---,,>1111",
"%%%$%$&%*----:,<11112",
"%*%%%%&%;----,>111223",
"=%%*%=&&;---:,<111234",
";*;*;;&&&&-:-,>111343",
";-;;--&---&&,,<112343",
"----------:-&&&111334",
"-----:--:-&&&&&&12243",
"---:--&-&&&&&&&111234",
"-::5:,&&&&&&,><111343",
"--,-,>&&&&5>,,1111233",
"-,-,,>&&:5:,,>1111344",
">,,,,,&,>,>,><1112334",
",,><,>,>,,,><111223&6",
"><11<1&&&&&&&&&&&&&&7",
"1111111&&&&&&&&&&&&&7",
"1111111&&&&&&&&&&&&&8",
"111223&2222322&3496&0",
"112233&33333334&46788",
"123334&&346443&&66788",
"1234664&&&&&&&&&67808",
"2346666&&&&&&&&667880",
"236467776&&&&&6778880",
"346677686766667688880",
"366778877878778780808",
"966888088887788088880",
"678788888080808808008",
"678880808088880880880",
"780808000000808808800",
"788080000000008880000"};
