/* XPM */
static char *xv16[] = {
/* width height num_colors chars_per_pixel */
"    16    16        3            1",
/* colors */
". c #000000",
"# c None",
"a c #f8fcf8",
/* pixels */
"################",
"################",
"####..##...a#.a.",
"###.a...a.aa#aa.",
"###.a.aa..aa.aa.",
"###.a.a.#.a.aa..",
"###.aa.#.aa.aa.a",
"###.aa##aa.#aaaa",
"###.a.#.aa..a...",
"##.aa..aaa#.a.##",
"#.aaa.aaaa.a.###",
".aa.aaa.aaaa####",
".a.#aa.#aaa.####",
"..##..##.a.#####",
"################",
"################"
};
