/* XPM */
static char *xv32[] = {
/* width height num_colors chars_per_pixel */
"    32    32        3            1",
/* colors */
". c None",
"# c #ffffff",
"a c #000000",
/* pixels */
"................................",
"................................",
"................................",
"................................",
"................................",
"................................",
".....................##....###..",
".......###.....###..#aa#..#aaa#.",
"......#aaa#..##aaa##aaa#.#aaaa#.",
"......#aaa#.#aaa##aaaaa#.#aaaa#.",
"......#aaa##aaa#..#aaa#.#aaaa#..",
"......#aaa#aaaa#..#aaa#.#aaaa#..",
"......#aaa#aaa#..#aaaa##aaaa#.#.",
"......#aaaaa##...#aaa#.#aaa###a#",
"......#aaaa#....#aaaa#..#aaaaaa#",
"......#aaaa#...#aaaa#..#aaaaaa#.",
"......#aaa#...#aaaa#..#aaa####..",
".....#aaaa#..#aaaaa#.#aaaa#.....",
"....#aaaaa#.#aaaaa#..#aaa#......",
"...#aaaaaa##aaaaaa#.#aaa#.......",
"..#aaa#aaaaaaa#aaa##aaa#........",
".#aaa##aaaaaa##aaaaaaaa#........",
"#aaa#.#aaaaa#.#aaaaaaa#.........",
"#aa#..#aaaa#...#aaaaa#..........",
".##....####.....#a###...........",
".................#..............",
"................................",
"................................",
"................................",
"................................",
"................................",
"................................"
};
