/* XPM */
static char *button_min[] = {
/* width height num_colors chars_per_pixel */
"    12    10        2            1",
/* colors */
". c None",
"# c #000000",
/* pixels */
"............",
"............",
"............",
"............",
"............",
"............",
"............",
"..######....",
"..######....",
"............"
};
