/* XPM */
static char *check_white[] = {
/* width height num_colors chars_per_pixel */
"     4     4        2            1",
/* colors */
". c None",
"# c #ffffff",
/* pixels */
"...#",
"#.##",
"###.",
".#.."
};
