#define csmask_size_h_width 32
#define csmask_size_h_height 32
static char csmask_size_h_bits[] = {
 0x00,0x00,0x00,0x00,0x00,0x00,0x00,0x00,0x00,0x00,0x00,0x00,0x00,0x00,0x00,
 0x00,0x00,0x00,0x00,0x00,0x00,0x00,0x00,0x00,0x00,0x00,0x00,0x00,0x00,0x00,
 0x00,0x00,0x00,0x00,0x00,0x00,0x00,0x00,0x00,0x00,0x00,0x00,0x00,0x00,0x00,
 0x00,0x00,0x00,0x00,0x0c,0x60,0x00,0x00,0x0e,0xe0,0x00,0x00,0x0f,0xe0,0x01,
 0x80,0xff,0xff,0x03,0xc0,0xff,0xff,0x07,0x80,0xff,0xff,0x03,0x00,0x0f,0xe0,
 0x01,0x00,0x0e,0xe0,0x00,0x00,0x0c,0x60,0x00,0x00,0x00,0x00,0x00,0x00,0x00,
 0x00,0x00,0x00,0x00,0x00,0x00,0x00,0x00,0x00,0x00,0x00,0x00,0x00,0x00,0x00,
 0x00,0x00,0x00,0x00,0x00,0x00,0x00,0x00,0x00,0x00,0x00,0x00,0x00,0x00,0x00,
 0x00,0x00,0x00,0x00,0x00,0x00,0x00,0x00};
