#define cursor_no_width 32
#define cursor_no_height 32
static char cursor_no_bits[] = {
 0xff,0xff,0xff,0xff,0xff,0xff,0xff,0xff,0xff,0xff,0xff,0xff,0xff,0xff,0xff,
 0xff,0xff,0xff,0xff,0xff,0xff,0xff,0xff,0xff,0xff,0x1f,0xf8,0xff,0xff,0xe7,
 0xe7,0xff,0xff,0xfb,0xdf,0xff,0xff,0x3d,0xbc,0xff,0xff,0xce,0x73,0xff,0x7f,
 0xdf,0xef,0xfe,0x7f,0xbb,0xdf,0xfe,0xbf,0x73,0xdf,0xfd,0xbf,0xed,0xbe,0xfd,
 0xbf,0xdd,0xbd,0xfd,0xbf,0xbd,0xbb,0xfd,0xbf,0x7d,0xb7,0xfd,0xbf,0xfb,0xce,
 0xfd,0x7f,0xfb,0xdd,0xfe,0x7f,0xf7,0xfb,0xfe,0xff,0xce,0x73,0xff,0xff,0x3d,
 0xbc,0xff,0xff,0xfb,0xdf,0xff,0xff,0xe7,0xe7,0xff,0xff,0x1f,0xf8,0xff,0xff,
 0xff,0xff,0xff,0xff,0xff,0xff,0xff,0xff,0xff,0xff,0xff,0xff,0xff,0xff,0xff,
 0xff,0xff,0xff,0xff,0xff,0xff,0xff,0xff};
