#define cursor_move_width 32
#define cursor_move_height 32
static char cursor_move_bits[] = {
 0xff,0xff,0xff,0xff,0xff,0xff,0xff,0xff,0xff,0xff,0xff,0xff,0xff,0xff,0xff,
 0xff,0xff,0xff,0xfe,0xff,0xff,0x7f,0xfd,0xff,0xff,0xbf,0xfb,0xff,0xff,0xdf,
 0xf7,0xff,0xff,0xef,0xef,0xff,0xff,0x0f,0xe0,0xff,0xff,0x7f,0xfd,0xff,0xff,
 0x7f,0xfd,0xff,0xff,0x7c,0x7d,0xfe,0x7f,0x7d,0x7d,0xfd,0xbf,0x7d,0x7d,0xfb,
 0xdf,0x01,0x01,0xf7,0xef,0xfd,0x7f,0xef,0xdf,0x01,0x01,0xf7,0xbf,0x7d,0x7d,
 0xfb,0x7f,0x7d,0x7d,0xfd,0xff,0x7c,0x7d,0xfe,0xff,0x7f,0xfd,0xff,0xff,0x7f,
 0xfd,0xff,0xff,0x0f,0xe0,0xff,0xff,0xef,0xef,0xff,0xff,0xdf,0xf7,0xff,0xff,
 0xbf,0xfb,0xff,0xff,0x7f,0xfd,0xff,0xff,0xff,0xfe,0xff,0xff,0xff,0xff,0xff,
 0xff,0xff,0xff,0xff,0xff,0xff,0xff,0xff};
