#define cursor_wait_width 32
#define cursor_wait_height 32
static char cursor_wait_bits[] = {
 0x00,0x00,0x00,0x00,0x00,0x00,0x00,0x00,0x00,0x00,0x00,0x00,0x00,0x00,0x00,
 0x00,0x00,0x00,0x00,0x00,0x00,0x00,0x00,0x00,0x20,0x00,0x00,0x00,0x60,0x00,
 0xfe,0x07,0xa0,0x00,0x06,0x06,0x20,0x01,0xfe,0x07,0x20,0x02,0x04,0x02,0x20,
 0x04,0x04,0x02,0x20,0x08,0x44,0x02,0x20,0x10,0x2c,0x03,0x20,0x20,0x98,0x01,
 0x20,0x40,0xb0,0x00,0x20,0xf8,0x98,0x01,0x20,0x09,0x0c,0x03,0xa0,0x12,0x24,
 0x02,0x60,0x12,0x54,0x02,0x20,0x24,0xac,0x02,0x00,0x24,0xfe,0x07,0x00,0x48,
 0x06,0x06,0x00,0x48,0xfe,0x07,0x00,0x30,0x00,0x00,0x00,0x00,0x00,0x00,0x00,
 0x00,0x00,0x00,0x00,0x00,0x00,0x00,0x00,0x00,0x00,0x00,0x00,0x00,0x00,0x00,
 0x00,0x00,0x00,0x00,0x00,0x00,0x00,0x00};
