/* XPM */
static const char * logo16[] = {
"16 16 2 1",
" 	c None",
".	c #D70451",
"                ",
"      .....     ",
"    .... ....   ",
"   ...     ..   ",
"   ..   .   ..  ",
"  ..   ...  ..  ",
"  ..  .   . ..  ",
"  ..  .  .  ..  ",
"  ..  ..   ..   ",
"  ...  .....    ",
"  ...   ...     ",
"   ...          ",
"    ...         ",
"      ...       ",
"                ",
"                "};
