/* XPM */
static char *logo_qvwm11[] = {
"21 232 4 1",
".	c #000000",
"+	c #000080",
"@	c #FFFFFF",
"#	c #0000FF",
".....................",
".....................",
".....................",
".....................",
".....................",
".....................",
".....................",
".....................",
"..................+..",
".....................",
".....................",
".....................",
".....................",
"...................+.",
"..+......+...........",
"...............+..+..",
"..+............+.....",
"........+..........+.",
".+..+................",
".....................",
"..+....+...+.......+.",
"....+..........+.....",
".+................+..",
"...+...+.........+..+",
".+.....+...++..+.....",
"...+..+............+.",
".+................+..",
"...+.+.+.++....+.....",
".+.....+.+........+.+",
"...+...++...+..+.....",
".+...+.............+.",
"..+.+...+++.+...+...+",
".+...+...+....+...+..",
"...+...............+.",
".+..+.+.+....+..+.+..",
"..+..++..++....+...+.",
"+..+....++..+.+.....+",
".+..+.++......+.+.+..",
"..+..+........+.+.+.+",
"+..+..+......++....+.",
".+..+.++.++...+...+..",
"..+.+.......+.++.+.+.",
"+.+.+.+.++.++.+.....+",
".+.+++...+......++.+.",
".+.......+.+++.++.+.+",
"..+.+..+....+..+++...",
"+..+...++...+..+.+.++",
".+.+++.....+..+.+.+..",
"+.+....++++......+.+.",
".+.+.+++.++..+..+..+.",
".+.+.++.+..+++..++.+.",
"+.+.+..+.+....+.++.+.",
".+.+.+++..+...+...+.+",
"+..+..++..+...+..+.+.",
".+.+.+.++++.++..++.+.",
"+.+.+.++.+++.+.++.+.+",
".+.+.+.+++...+++..+.+",
"+.+.+.+...++.++..+.+.",
".+.+.+.+..+..+++++.+.",
"+.+.+..+.+..++.+++.++",
".++.++++.++++.+..+.+.",
"+.+.+.+++..+.+++++.+.",
"+.+.+.+....+.+++.+.++",
".+.+++++.+.+..+..+.+.",
"+.+.+.++.++++++..+.++",
"++.+.++.++.+++.++.+.+",
".+.++.+.+.....+++.++.",
"+.+.+.+++++++..+++.+.",
"++.+++.++.++++.+..+.+",
".++.+...+++++..+++++.",
"+.++.++++..++.++++.++",
"++.+++++.+.+..+++++.+",
".++.+.++++++...+.+.+.",
"+.++.++.+++.+.+++++.+",
"++.++++++++++.+++.+++",
".++++.++.+.+++.+++.+.",
"++++++++.++++++..++++",
"+.+++++++.+.+++++.+.+",
"+++.++.+++++++.+++++.",
"+.+++.+.+++++.++++.++",
"+++++.++++++..++++++.",
"+.+++++.++.++++++++.+",
"+++++.+++++++++.+++++",
"+.+.+++++...++++++.+.",
"++++.++++++++++++.+++",
"+.+++++++++++..++++.+",
"++.+.+.+.+++++.++++++",
"+++++++++++++++++++.+",
"+.++.++++++.++++.++++",
"+++++++++++++++++++.+",
"+.+.+++.++++++.++++++",
"+++++++++++.+++++++.+",
"++++.++.+++++++++++++",
"+.++++++++.+.+++++.++",
"++++.+++++.+.+++.++++",
"++.++++++++++++++.++.",
"+++++++++++++++++++++",
"+++++++++++++++++++++",
"++.++++.++++.++++++++",
"+++++++++++++++++++++",
"+++++++++++++++++++++",
"++.++++++++++++++.+++",
"++++++++.++++++++++.+",
"+++++++++++++++++++++",
"+++++++++++++++++++++",
"++++++++++++++++++.++",
"+++++++++++++++++++++",
"++++@@@@@@@@@@@@@@+++",
"++++@@@@@@@@@@@@@@+++",
"++++@@@@@@@@@@@@@@+++",
"++++@@@@@@@@@@@@@@+++",
"++++++@@@++++++++++++",
"+++++++@@@+++++++++++",
"+++++++@@@+++++++++++",
"++++++++@@@++++++++++",
"+++++++++++++++++++++",
"+++++++++++++++++++++",
"+++++++++++++++++++++",
"++++++++++++++@@@@+++",
"++++++++++++++@@@@+++",
"++++++++++++++@@@@+++",
"++++++++++++++@@@@+++",
"+++++++++++++++++++++",
"+++++++++++++++++++++",
"+++++++++++++++++++++",
"+++++++++++++++++++++",
"++++@@@@@@@@@@@@@@+++",
"++++@@@@@@@@@@@@@@+++",
"+++#@@@@@@@@@@@@@@+++",
"++++@@@@@@@@@@@@@@+++",
"++++++@@@++++++++++#+",
"++#++#+@@@+++++++#+++",
"+++++++@@@+#+++++++++",
"+++#++++@@@++++++++++",
"+#++++++#+#+#++++#++#",
"+++++#+++++++++++++++",
"+++#+++#+++++#++#++#+",
"+#+++++++++++++++++++",
"+++++#++++#+++++#++++",
"+++#++++#++++#+++++#+",
"+#+++++++++++++++++++",
"+++++++#+++#++++#+++#",
"++#+#++++++++#++++#++",
"+++++#+++#+++++#+++++",
"+#+#++#+++++#+++++#+#",
"+++++++#++#+++#++#+++",
"+#+#+#++#+++++++++++#",
"+++++++++#++#+#+++#++",
"+#+#+++++++++++++#++#",
"++++#+++#++#+++#+++++",
"+#+#++#+++#++#++#+#+#",
"++#+++++++++++#++++++",
"#+++#++#+++#++++#++#+",
"++#+++#++#+++#++++++#",
"+#+#++++#+++++++#+#++",
"++++#+#+++#++#+#+++#+",
"#+#++++++++++++#++++#",
"+#+#++#++#++#+++#++#+",
"++++#++++++++#++++#+#",
"#+#+#+++@@@@@@@@@++#+",
"+#+#+#+@@@@@@@@@@#++#",
"+#++++@@@@@@@@@@@+#++",
"++#+#+@@@@@@@@@@@#+#+",
"#+#+##@@@@@@@@@@@+#+#",
"+#+++#@@@#+#++##+#+#+",
"+#+#+#+@@@@@@@@@@+#+#",
"+#+#++@@@@@@@@@@@#+#+",
"#+#+#+@@@@@@@@@@@+#+#",
"+#++#+@@@@@@@@@@@#+#+",
"+#+#+#@@@@@@@@@@@+#+#",
"#+#+#+@@@#+##+##+#+#+",
"+#+#+#@@@@@@@@@@@+#+#",
"#+#+#+@@@@@@@@@@@#+#+",
"+#+#+#@@@@@@@@@@@+#+#",
"#+#+#+@@@@@@@@@@@#+##",
"+#+#+#@@@@@@@@@@@##+#",
"#+#+#+##+##+###+##+##",
"+#+#+#+#+####+###+#+#",
"#+#+#+@@+##+#####++##",
"+#+#+#@@@@@###+######",
"#+##++@@@@@@@@###+#+#",
"###+##@@@@@@@@@@@####",
"#+#+#+@@@@@@@@@@@#+##",
"####+#+@@@@@@@@@@##+#",
"#+#####@@@@@@@@@@++##",
"###+##@@@@@@@@@@#####",
"######@@@@@@@+#######",
"##+#+#@@@@@@@#+###+##",
"#+####@@@@@@@@@@#####",
"##+#+##@@@@@@@@@@##+#",
"#######@@@@@@@@@@#+##",
"#+#+##@@@@@@@@@@@##+#",
"##+#+#@@@@@@@@@@@+###",
"######@@@@@@@@+###+##",
"#+#+#+@@@@@########+#",
"###+##@@##########+##",
"#+##+####+###+#####+#",
"##+###@#+############",
"#+####@@@@####+###+##",
"###+##@@@@@@@###+####",
"#+##+#@@@@@@@@@@##+##",
"##+###@@@@@@@@@@@####",
"####+##+@@@@@@@@@####",
"#+######@@@@@@@@@##+#",
"##+#+#@@@@@@@@@@@####",
"######@@@@@@@@@@##+##",
"#+####@@@@@@@########",
"######@@@@#########+#",
"######@##############",
"#####################",
"################@####",
"#######@@@@@@##@@@###",
"#####@@@@@@@@@@@@@###",
"####@@@@@@@@@@@@@@###",
"####@@@@@@@@@@@@@####",
"###@@@@@@@@@@@@@@####",
"###@@@@#####@@@@@####",
"###@@@#####@@@@@@####",
"###@@@#####@@@@@@####",
"###@@@@######@@@@####",
"###@@@@@@@@@@@@@@####",
"####@@@@@@@@@@@@#####",
"####@@@@@@@@@@@@#####",
"#####@@@@@@@@@@######",
"#######@@@@@@########",
"#####################",
"#####################",
"#####################",
"#####################",
"#####################",
"#####################",
"#####################"};
