/* XPM */
static char *selector_black[] = {
/* width height num_colors chars_per_pixel */
"     6     6        2            1",
/* colors */
". c None",
"# c #000000",
/* pixels */
".####.",
"######",
"######",
"######",
"######",
".####."
};
